# xmcd
#
# Track frame offsets:
#	150
#	19495
#	38279
#	63268
#	93527
#	113215
#	129750
#	160248
#	181451
#	199674
#	222187
#	244609
#	263002
#	282885
#
# Disc length: 4182
#
# Revision: 1
# Processed by: cddbd v1.5.1PL0 Copyright (c) Steve Scherf et al.
# Submitted via: CDex 1.51
# Normalized: r0:DSETVAR1,TDELIM( - )
#
DISCID=ba10540e
DTITLE=Various Artist - Constelacion de Estrellas, Vol. 2: Fania Platino
DYEAR=1900
DGENRE=Salsa
TTITLE0=Traigo de Todo - Ismael Rivera
TTITLE1=Anacaona - Cheo Feliciano
TTITLE2=Mi Desengaño - Roberto Roena
TTITLE3=Peridiódico de Ayer - Hector Lavoe
TTITLE4=Let's Make Up - Hermanos Lebron
TTITLE5=Pa Bravo Yo - Justo Betancourt
TTITLE6=Gitana - Willie Colón
TTITLE7=Maria Luisa - Ismael Miranda
TTITLE8=Muñeca - Eddie Palmieri
TTITLE9=Richies Jala Jala - Richie Ray
TTITLE10=Plantación Adentro - Rubén Blades
TTITLE11=A Papa - Celia Cruz
TTITLE12=Quítate la Máscara - Ray Barreto
TTITLE13=Lágrimas - La Inmensidad
EXTD=
EXTT0=
EXTT1=
EXTT2=
EXTT3=
EXTT4=
EXTT5=
EXTT6=
EXTT7=
EXTT8=
EXTT9=
EXTT10=
EXTT11=
EXTT12=
EXTT13=
PLAYORDER=
